<svg aria-hidden="true" style="position:absolute;width:0;height:0;overflow:hidden" xmlns="http://www.w3.org/2000/svg">
  <defs>
    <!-- #region Header -->
    <svg id="logo" width="132" height="24" viewBox="0 0 132 24" fill="none" xmlns="http://www.w3.org/2000/svg">
      <path
        d="M2.538 9.253 L 5.060 13.446 5.060 16.183 L 5.060 18.920 6.380 18.920 L 7.700 18.920 7.700 16.115 L 7.700 13.310 10.120 9.279 C 11.451 7.062,12.540 5.201,12.540 5.144 C 12.540 5.087,11.872 5.069,11.055 5.105 L 9.570 5.170 8.030 7.862 C 7.183 9.342,6.428 10.555,6.352 10.557 C 6.276 10.558,5.500 9.322,4.629 7.810 L 3.044 5.060 1.530 5.060 L 0.016 5.060 2.538 9.253 M13.797 6.113 L 12.760 7.165 12.760 12.006 L 12.760 16.847 13.813 17.883 L 14.865 18.920 18.606 18.920 L 22.347 18.920 23.383 17.867 L 24.420 16.815 24.420 11.974 L 24.420 7.133 23.367 6.097 L 22.315 5.060 18.574 5.060 L 14.833 5.060 13.797 6.113 M26.400 10.843 L 26.400 16.625 27.562 17.773 L 28.724 18.920 32.150 18.920 L 35.576 18.920 36.708 17.723 L 37.840 16.526 37.840 10.793 L 37.840 5.060 36.410 5.060 L 34.980 5.060 34.980 10.412 C 34.980 15.721,34.976 15.767,34.471 16.242 C 34.032 16.654,33.708 16.720,32.118 16.720 C 30.417 16.720,30.226 16.674,29.657 16.129 L 29.040 15.538 29.040 10.299 L 29.040 5.060 27.720 5.060 L 26.400 5.060 26.400 10.843 M39.820 11.990 L 39.820 18.920 41.250 18.920 L 42.680 18.920 42.680 16.280 L 42.680 13.640 44.860 13.640 C 47.025 13.640,47.045 13.645,47.610 14.317 C 48.130 14.934,48.180 15.166,48.180 16.957 L 48.180 18.920 49.500 18.920 L 50.820 18.920 50.820 16.565 C 50.820 14.215,50.819 14.210,50.117 13.485 L 49.414 12.760 50.117 12.035 C 50.807 11.322,50.820 11.272,50.820 9.221 L 50.820 7.133 49.767 6.097 L 48.715 5.060 44.267 5.060 L 39.820 5.060 39.820 11.990 M57.860 11.990 L 57.860 18.920 62.920 18.920 L 67.980 18.920 67.980 17.820 L 67.980 16.720 64.231 16.720 L 60.482 16.720 60.546 14.905 L 60.610 13.090 63.965 13.029 L 67.320 12.969 67.320 11.874 L 67.320 10.780 63.910 10.780 L 60.500 10.780 60.500 9.020 L 60.500 7.260 64.240 7.260 L 67.980 7.260 67.980 6.160 L 67.980 5.060 62.920 5.060 L 57.860 5.060 57.860 11.990 M69.520 11.990 L 69.520 18.920 70.730 18.920 L 71.940 18.920 71.940 14.300 C 71.940 11.759,72.014 9.681,72.105 9.682 C 72.196 9.682,73.632 11.761,75.297 14.302 L 78.324 18.920 79.532 18.920 L 80.740 18.920 80.740 11.990 L 80.740 5.060 79.424 5.060 L 78.109 5.060 78.049 9.673 L 77.990 14.286 74.937 9.673 L 71.883 5.060 70.702 5.060 L 69.520 5.060 69.520 11.990 M82.940 11.990 L 82.940 18.920 88.000 18.920 L 93.060 18.920 93.060 17.820 L 93.060 16.720 89.311 16.720 L 85.562 16.720 85.626 14.905 L 85.690 13.090 89.045 13.029 L 92.400 12.969 92.400 11.874 L 92.400 10.780 88.990 10.780 L 85.580 10.780 85.580 9.020 L 85.580 7.260 89.320 7.260 L 93.060 7.260 93.060 6.160 L 93.060 5.060 88.000 5.060 L 82.940 5.060 82.940 11.990 M94.600 11.990 L 94.600 18.920 95.920 18.920 L 97.240 18.920 97.240 16.280 L 97.240 13.640 99.399 13.640 C 101.477 13.640,101.580 13.663,102.149 14.257 C 102.703 14.835,102.740 15.001,102.740 16.897 L 102.740 18.920 104.170 18.920 L 105.600 18.920 105.600 16.651 C 105.600 14.417,105.590 14.373,104.940 13.750 C 104.138 12.981,104.123 12.764,104.830 12.100 C 105.346 11.615,105.380 11.447,105.380 9.358 L 105.380 7.133 104.327 6.097 L 103.275 5.060 98.937 5.060 L 94.600 5.060 94.600 11.990 M108.397 6.113 L 107.360 7.165 107.360 12.006 L 107.360 16.847 108.413 17.883 L 109.465 18.920 113.096 18.920 L 116.727 18.920 117.763 17.867 L 118.800 16.815 118.800 14.017 L 118.800 11.220 116.050 11.220 L 113.300 11.220 113.300 12.320 L 113.300 13.420 114.730 13.420 L 116.160 13.420 116.160 14.592 C 116.160 15.532,116.059 15.858,115.651 16.242 C 115.207 16.659,114.891 16.720,113.188 16.720 C 111.367 16.720,111.192 16.680,110.617 16.129 L 110.000 15.538 110.000 11.990 L 110.000 8.442 110.617 7.851 C 111.193 7.299,111.365 7.260,113.219 7.260 C 115.009 7.260,115.250 7.310,115.682 7.769 C 115.945 8.049,116.160 8.544,116.160 8.869 C 116.160 9.445,116.194 9.460,117.480 9.460 L 118.800 9.460 118.800 8.297 C 118.800 7.199,118.741 7.075,117.747 6.097 L 116.695 5.060 113.064 5.060 L 109.433 5.060 108.397 6.113 M119.020 5.154 C 119.020 5.206,120.109 7.062,121.440 9.279 L 123.860 13.310 123.860 16.115 L 123.860 18.920 125.180 18.920 L 126.500 18.920 126.500 16.115 L 126.500 13.310 128.920 9.279 C 130.251 7.062,131.340 5.206,131.340 5.154 C 131.340 5.102,130.705 5.060,129.928 5.060 L 128.516 5.060 126.931 7.810 C 126.060 9.322,125.280 10.560,125.199 10.560 C 125.118 10.560,124.329 9.322,123.446 7.810 L 121.840 5.060 120.430 5.060 C 119.655 5.060,119.020 5.102,119.020 5.154 M21.189 7.877 C 21.780 8.494,21.780 8.496,21.780 11.990 C 21.780 15.484,21.780 15.486,21.189 16.103 C 20.622 16.694,20.510 16.720,18.508 16.720 C 16.665 16.720,16.358 16.663,15.909 16.242 C 15.416 15.778,15.400 15.648,15.400 12.021 C 15.400 8.481,15.426 8.251,15.878 7.769 C 16.314 7.305,16.545 7.260,18.477 7.260 C 20.513 7.260,20.621 7.285,21.189 7.877 M47.778 7.624 C 48.083 7.900,48.180 8.309,48.180 9.312 C 48.180 11.305,47.983 11.440,45.066 11.440 L 42.680 11.440 42.680 9.350 L 42.680 7.260 45.028 7.260 C 46.903 7.260,47.456 7.333,47.778 7.624 M102.338 7.624 C 102.643 7.900,102.740 8.309,102.740 9.312 C 102.740 11.305,102.543 11.440,99.626 11.440 L 97.240 11.440 97.240 9.350 L 97.240 7.260 99.588 7.260 C 101.463 7.260,102.016 7.333,102.338 7.624 "
        fill="#242424" stroke="none" fill-rule="evenodd"></path>
    </svg>
    <svg id="burger" width="32" height="32" viewBox="0 0 32 32" fill="none" xmlns="http://www.w3.org/2000/svg">
      <path
        d="M3.753 7.037 C 3.108 7.191,2.797 8.005,3.178 8.544 C 3.263 8.665,3.429 8.814,3.547 8.875 L 3.760 8.987 15.840 9.001 C 24.497 9.011,28.001 8.998,28.205 8.956 C 29.203 8.750,29.239 7.297,28.252 7.048 C 27.971 6.978,4.048 6.967,3.753 7.037 M3.753 12.371 C 3.108 12.525,2.797 13.338,3.178 13.877 C 3.263 13.998,3.429 14.147,3.547 14.209 L 3.760 14.320 15.840 14.334 C 24.497 14.344,28.001 14.332,28.205 14.289 C 29.203 14.083,29.239 12.630,28.252 12.382 C 27.971 12.311,4.048 12.300,3.753 12.371 M3.753 17.704 C 3.108 17.859,2.797 18.672,3.178 19.210 C 3.263 19.331,3.429 19.481,3.547 19.542 L 3.760 19.653 15.840 19.667 C 24.497 19.678,28.001 19.665,28.205 19.623 C 29.081 19.442,29.264 18.283,28.492 17.804 L 28.293 17.680 16.107 17.672 C 9.404 17.667,3.845 17.682,3.753 17.704 M3.753 23.037 C 3.108 23.191,2.797 24.005,3.178 24.544 C 3.263 24.665,3.429 24.814,3.547 24.875 L 3.760 24.987 15.840 25.001 C 24.497 25.011,28.001 24.998,28.205 24.956 C 29.203 24.750,29.239 23.297,28.252 23.048 C 27.971 22.978,4.048 22.967,3.753 23.037 "
        stroke="none" fill-rule="evenodd" fill="black"></path>
    </svg>
    <symbol id="facebook" viewBox="0 0 32 32">
      <path
        d="M19.52 4.64h.96v3.6h-1.2c-.48 0-.96 0-1.2.24s-.24.48-.24 1.04v1.28h2.64v3.04h-2.64v13.2h-4.08V13.76H11.6v-3.04h2.16V9.68c0-1.76.24-3.04.72-3.6.72-1.04 2.16-1.52 4.32-1.52.24.08.48.08.72.08z" />
    </symbol>
    <symbol id="instagram" viewBox="0 0 32 32">
      <path
        d="M28.717 10.756a9.264 9.264 0 0 0-.596-3.145 6.547 6.547 0 0 0-3.743-3.737 9.42 9.42 0 0 0-3.108-.596c-1.368-.061-1.801-.078-5.273-.078s-3.917 0-5.274.078a9.418 9.418 0 0 0-3.106.596 6.541 6.541 0 0 0-3.743 3.737 9.288 9.288 0 0 0-.596 3.101c-.061 1.367-.08 1.8-.08 5.265s0 3.909.08 5.265a9.335 9.335 0 0 0 .596 3.104 6.548 6.548 0 0 0 3.744 3.735 9.37 9.37 0 0 0 3.106.639c1.369.061 1.803.08 5.274.08s3.916 0 5.274-.08a9.357 9.357 0 0 0 3.108-.595 6.555 6.555 0 0 0 3.743-3.737 9.35 9.35 0 0 0 .596-3.104c.061-1.365.08-1.798.08-5.265-.003-3.466-.003-3.906-.082-5.264zM15.99 22.531c-3.631 0-6.572-2.936-6.572-6.561s2.941-6.561 6.572-6.561c3.628 0 6.572 2.936 6.572 6.561s-2.944 6.561-6.572 6.561zm6.833-11.835a1.53 1.53 0 1 1 0-3.06 1.53 1.53 0 1 1 0 3.06z" />
      <path d="M15.992 19.976a4.004 4.004 0 1 0 0-8.009 4.004 4.004 0 0 0 0 8.009z" />
    </symbol>
    <symbol id="youtube" viewBox="0 0 32 32">
      <path
        d="M24.24 6c-1.36-.08-4.16-.16-8.4-.16h-.56c-4.08 0-6.8.08-8.16.24-1.84.16-3.12.64-3.84 1.28-.64.56-1.12 1.6-1.28 2.96-.08.88-.16 2.72-.16 5.52v.4c0 2.64.08 4.48.24 5.36.24 1.28.64 2.24 1.44 2.8.8.64 2.16 1.04 4.08 1.2 1.36.08 4.16.16 8.4.16h.56c4.08 0 6.8-.08 8.16-.24 1.84-.16 3.12-.64 3.84-1.28.64-.56 1.12-1.6 1.28-2.96.08-.88.16-2.72.16-5.52v-.4c0-2.64-.08-4.48-.24-5.36-.24-1.28-.64-2.24-1.44-2.8-.8-.64-2.16-1.04-4.08-1.2zm-3.12 9.84-8.8 5.28V10.56l8.8 5.28z" />
    </symbol>
    <!-- #endregion Header -->
    <!-- #region Hero -->
    <symbol id="sun" viewBox="0 0 32 32">
      <path
        d="m14.254 13.505.363.372L10.151 1.08l5.321 12.466.018-.52.441-13.027.441 13.026.018.52 5.321-12.466-4.466 12.797 9.465-9.702-8.787 10.32 12.331-5.628-11.922 6.449 13.531-.793-13.446 1.707 12.904 4.148-13.155-3.266 10.534 8.53-11.087-7.798 6.741 11.759-7.521-11.276 2.038 13.4-2.94-13.232-2.94 13.232 2.038-13.4-7.521 11.276 6.741-11.759-11.087 7.798 10.534-8.53L.541 20.377l12.904-4.148-13.446-1.707 13.531.793L1.608 8.866l12.331 5.628-8.787-10.32 9.102 9.33zm.931.566-.646.4-.458.607-.208.731.07.757.339.68.562.512.709.275h.76l.709-.275.562-.512.339-.68.07-.757-.208-.731-.458-.607-.646-.4-.747-.14-.747.14z" />
    </symbol>
    <!-- #endregion Hero -->
    <!-- #region Exercises -->
    <symbol id="running-man" viewBox="0 0 29 32">
      <path
        d="M28.367 9.451a1.232 1.232 0 0 0-1.706-.149l-3.359 2.757-1.545-3.739a1.157 1.157 0 0 0-.234-.362 3.255 3.255 0 0 0-1.619-1.617 3.379 3.379 0 0 0-1.005-.262c-.075-.038-.142-.088-.227-.114l-5.911-1.61a1.242 1.242 0 0 0-.938.125 1.17 1.17 0 0 0-.736.672l-2.226 5.592a1.18 1.18 0 0 0 .692 1.534 1.224 1.224 0 0 0 1.568-.678l1.88-4.722 2.692.731c-.066.104-.137.201-.19.312l-3.451 7.309c-.05.107-.076.217-.112.328l-4.194 6.871-7.019 2.294a1.73 1.73 0 0 0-.376 2.45 1.82 1.82 0 0 0 2.506.369l7.182-2.417c.22-.156.38-.36.5-.581.09-.093.193-.168.262-.284l2.501-4.096 4.439 3.696-4.749 5.23a1.722 1.722 0 0 0 .152 2.469c.74.643 1.873.575 2.531-.149l5.927-6.524c.184-.201.294-.433.369-.676.044-.132.044-.268.055-.405 0-.069.027-.132.021-.196a1.705 1.705 0 0 0-.615-1.274l-4.084-3.403c.294-.274.544-.6.725-.983l2.646-5.599.848 2.206c.036.196.103.388.245.549.128.149.291.248.465.317.018.009.039.01.06.016.11.038.222.075.337.08.136.012.275-.005.415-.043l.005-.002c.037-.009.075-.002.112-.017.197-.073.348-.196.477-.34l4.82-3.998c.512-.421.296-1.166-.135-1.667zM22.271 6.602c1.866 0 3.378-1.478 3.378-3.301S24.137 0 22.271 0s-3.378 1.478-3.378 3.301 1.513 3.301 3.378 3.301z" />
    </symbol>
    <symbol id="quotes" viewBox="0 0 32 32">
      <path
        d="M8.201 17.469c1.546-.613 2.785-.452 3.719.481s1.21 2.421.831 4.463c-.292 1.517-.933 2.683-1.925 3.5-.963.787-2.085 1.181-3.369 1.181-1.75 0-2.96-.671-3.631-2.013-.671-1.371-.802-3.208-.394-5.512.233-1.254.613-2.523 1.137-3.806s1.225-2.596 2.1-3.938 2.013-2.508 3.413-3.5 2.946-1.633 4.637-1.925l-.437 4.638c-1.429.292-2.698 1.035-3.806 2.231-1.108 1.167-1.867 2.567-2.275 4.2zm13.169 0c1.546-.613 2.785-.452 3.719.481s1.21 2.421.831 4.463c-.292 1.517-.933 2.683-1.925 3.5-.963.787-2.085 1.181-3.369 1.181-1.75 0-2.96-.671-3.631-2.013-.671-1.371-.802-3.208-.394-5.512.233-1.254.613-2.523 1.137-3.806s1.225-2.596 2.1-3.938 2.013-2.508 3.413-3.5 2.946-1.633 4.637-1.925l-.437 4.638c-1.429.292-2.698 1.035-3.806 2.231-1.108 1.167-1.867 2.567-2.275 4.2z" />
    </symbol>
    <symbol id="dumbbell" viewBox="0 0 32 32">
      <path
        d="M7.36 9.143H5.44c-.532 0-.96.459-.96 1.029v4.457h-.96c-.176 0-.32.154-.32.343v2.057c0 .188.144.343.32.343h.96v4.457c0 .57.428 1.028.96 1.028h1.92c.532 0 .96-.459.96-1.028V10.172c0-.57-.428-1.029-.96-1.029zm21.12 5.486h-.96v-4.457c0-.57-.428-1.029-.96-1.029h-1.92c-.532 0-.96.459-.96 1.029v11.657c0 .57.428 1.028.96 1.028h1.92c.532 0 .96-.459.96-1.028v-4.457h.96c.176 0 .32-.154.32-.343v-2.057c0-.189-.144-.343-.32-.343zM21.44 6.4h-1.92c-.532 0-.96.459-.96 1.029v7.2h-5.12v-7.2c0-.57-.428-1.029-.96-1.029h-1.92c-.532 0-.96.459-.96 1.029v17.143c0 .57.428 1.029.96 1.029h1.92c.532 0 .96-.459.96-1.029v-7.2h5.12v7.2c0 .57.428 1.029.96 1.029h1.92c.532 0 .96-.459.96-1.029V7.429c0-.57-.428-1.029-.96-1.029z" />
    </symbol>
    <symbol id="search" viewBox="0 0 32 32">
      <path stroke-linejoin="round" stroke-linecap="round" stroke-width="2.667"
        d="M14.667 25.333c5.891 0 10.667-4.776 10.667-10.667S20.558 3.999 14.667 3.999 4 8.775 4 14.666s4.776 10.667 10.667 10.667zM28 28l-5.8-5.8" />
    </symbol>
    <symbol id="exercise-start" viewBox="0 0 32 32">
      <path stroke-linejoin="round" stroke-linecap="round" stroke-width="2.6" d="m15 28 13-13m0 0L15 2m13 13H2" />
    </symbol>
    <symbol id="star" viewBox="0 0 34 32">
      <path
        d="M15.349 4.972c0.592-1.823 3.172-1.823 3.764 0l1.672 5.147c0.265 0.815 1.025 1.368 1.882 1.368h5.411c1.917 0 2.714 2.453 1.163 3.58l-4.378 3.181c-0.694 0.504-0.984 1.397-0.719 2.212l1.672 5.147c0.593 1.823-1.494 3.339-3.045 2.212l-4.378-3.181c-0.694-0.504-1.633-0.504-2.326 0l-4.378 3.181c-1.551 1.127-3.638-0.389-3.045-2.212l1.672-5.147c0.265-0.815-0.025-1.709-0.719-2.212l-4.378-3.181c-1.551-1.127-0.754-3.58 1.163-3.58h5.411c0.857 0 1.617-0.552 1.882-1.368l1.672-5.147z">
      </path>
    </symbol>
    <!-- Pagination -->
    <symbol id="pagination-left-double-arrow" viewBox="0 0 41 32">
      <path
        d="M13.111 16.789a1.099 1.099 0 0 1-.328-.789 1.118 1.118 0 0 1 .328-.788l5.1-5.089a1.099 1.099 0 0 0 .328-.789 1.114 1.114 0 0 0-1.111-1.112 1.11 1.11 0 0 0-.783.323l-5.1 5.1a3.334 3.334 0 0 0 0 4.711l5.1 5.1a1.11 1.11 0 0 0 1.895-.79 1.118 1.118 0 0 0-.328-.788l-5.1-5.089zM22.444 16.789a1.099 1.099 0 0 1-.328-.789 1.118 1.118 0 0 1 .328-.788l5.1-5.089a1.099 1.099 0 0 0 .328-.789 1.114 1.114 0 0 0-1.111-1.112 1.11 1.11 0 0 0-.783.323l-5.1 5.1a3.334 3.334 0 0 0 0 4.711l5.1 5.1a1.11 1.11 0 0 0 1.895-.79 1.118 1.118 0 0 0-.328-.788l-5.1-5.089z" />
    </symbol>
    <symbol id="pagination-left-single-arrow" viewBox="0 0 32 32">
      <path
        d="M14.133 16.947a1.334 1.334 0 0 1 0-1.894l6.12-6.107a1.334 1.334 0 1 0-1.88-1.894l-6.12 6.12a4.001 4.001 0 0 0 0 5.654l6.12 6.12a1.337 1.337 0 0 0 2.172-.434 1.331 1.331 0 0 0-.292-1.46l-6.12-6.107z" />
    </symbol>
    <symbol id="pagination-right-single-arrow" viewBox="0 0 32 32">
      <path
        d="M17.867 16.947a1.334 1.334 0 0 0 0-1.894l-6.12-6.107a1.334 1.334 0 1 1 1.88-1.894l6.12 6.12a4.001 4.001 0 0 1 0 5.654l-6.12 6.12a1.337 1.337 0 0 1-2.172-.434 1.331 1.331 0 0 1 .292-1.46l6.12-6.107z" />
    </symbol>
    <symbol id="pagination-right-double-arrow" viewBox="0 0 41 32">
      <path
        d="M28.222 16.789A1.099 1.099 0 0 0 28.55 16a1.118 1.118 0 0 0-.328-.788l-5.1-5.089a1.099 1.099 0 0 1-.328-.789 1.114 1.114 0 0 1 1.111-1.112c.293 0 .575.116.783.323l5.1 5.1a3.334 3.334 0 0 1 0 4.711l-5.1 5.1a1.11 1.11 0 0 1-1.895-.79 1.118 1.118 0 0 1 .328-.788l5.1-5.089zM18.889 16.789a1.099 1.099 0 0 0 .328-.789 1.118 1.118 0 0 0-.328-.788l-5.1-5.089a1.099 1.099 0 0 1-.328-.789 1.114 1.114 0 0 1 1.111-1.112c.293 0 .575.116.783.323l5.1 5.1a3.334 3.334 0 0 1 0 4.711l-5.1 5.1a1.11 1.11 0 0 1-1.895-.79 1.118 1.118 0 0 1 .328-.788l5.1-5.089z" />
    </symbol>
    <!-- Modal -->
    <symbol id="heart" viewBox="0 0 32 32">
      <path stroke-linejoin="round" stroke-linecap="round" stroke-width="2.4"
        d="M27.787 6.147a7.345 7.345 0 0 0-5.187-2.15 7.33 7.33 0 0 0-5.187 2.15L16 7.56l-1.413-1.413a7.333 7.333 0 0 0-10.374 0 7.333 7.333 0 0 0 0 10.374L16 28.308l11.787-11.787a7.345 7.345 0 0 0 2.15-5.187 7.33 7.33 0 0 0-2.15-5.187z" />
    </symbol>
    <symbol id="close" viewBox="0 0 32 32">
      <path stroke-linejoin="round" stroke-linecap="round" stroke-width="2.286"
        d="M22.667 9.333 9.334 22.666M9.333 9.333l13.333 13.333" />
    </symbol>
    <symbol id="trash-bin" viewBox="0 0 32 32">
      <path stroke-linejoin="round" stroke-linecap="round" stroke-width="2.6"
        d="M21.333 8V6.933c0-1.493 0-2.24-.291-2.811a2.666 2.666 0 0 0-1.165-1.165c-.57-.291-1.317-.291-2.811-.291h-2.133c-1.493 0-2.24 0-2.811.291-.502.256-.91.664-1.165 1.165-.291.57-.291 1.317-.291 2.811V8m2.667 7.333V22m5.334-6.667V22M4 8h24m-2.667 0v14.933c0 2.24 0 3.36-.436 4.216a3.996 3.996 0 0 1-1.748 1.748c-.856.436-1.976.436-4.216.436h-5.867c-2.24 0-3.36 0-4.216-.436a3.991 3.991 0 0 1-1.748-1.748c-.436-.856-.436-1.976-.436-4.216V8" />
    </symbol>
    <!-- #endregion Exercises -->
    <symbol id="scroll-up" viewBox="0 0 31 32">
      <path
        d="M16.413 7.652v17.019h-1.811V7.652l-8.509 8.509-1.28-1.28L15.508 4.186l10.695 10.695-1.28 1.28-8.509-8.509z" />
    </symbol>
  </defs>
</svg>