<svg aria-hidden="true" style="position:absolute;width:0;height:0;overflow:hidden" xmlns="http://www.w3.org/2000/svg">
  <defs>
  <!-- #region Header -->
    <svg id="burger" width="32" height="32" viewBox="0 0 32 32" fill="none" xmlns="http://www.w3.org/2000/svg"><path d="M3.753 7.037 C 3.108 7.191,2.797 8.005,3.178 8.544 C 3.263 8.665,3.429 8.814,3.547 8.875 L 3.760 8.987 15.840 9.001 C 24.497 9.011,28.001 8.998,28.205 8.956 C 29.203 8.750,29.239 7.297,28.252 7.048 C 27.971 6.978,4.048 6.967,3.753 7.037 M3.753 12.371 C 3.108 12.525,2.797 13.338,3.178 13.877 C 3.263 13.998,3.429 14.147,3.547 14.209 L 3.760 14.320 15.840 14.334 C 24.497 14.344,28.001 14.332,28.205 14.289 C 29.203 14.083,29.239 12.630,28.252 12.382 C 27.971 12.311,4.048 12.300,3.753 12.371 M3.753 17.704 C 3.108 17.859,2.797 18.672,3.178 19.210 C 3.263 19.331,3.429 19.481,3.547 19.542 L 3.760 19.653 15.840 19.667 C 24.497 19.678,28.001 19.665,28.205 19.623 C 29.081 19.442,29.264 18.283,28.492 17.804 L 28.293 17.680 16.107 17.672 C 9.404 17.667,3.845 17.682,3.753 17.704 M3.753 23.037 C 3.108 23.191,2.797 24.005,3.178 24.544 C 3.263 24.665,3.429 24.814,3.547 24.875 L 3.760 24.987 15.840 25.001 C 24.497 25.011,28.001 24.998,28.205 24.956 C 29.203 24.750,29.239 23.297,28.252 23.048 C 27.971 22.978,4.048 22.967,3.753 23.037 " stroke="none" fill-rule="evenodd" fill="black"></path></svg>
    <symbol id="facebook" viewBox="0 0 32 32">
      <path d="M19.52 4.64h.96v3.6h-1.2c-.48 0-.96 0-1.2.24s-.24.48-.24 1.04v1.28h2.64v3.04h-2.64v13.2h-4.08V13.76H11.6v-3.04h2.16V9.68c0-1.76.24-3.04.72-3.6.72-1.04 2.16-1.52 4.32-1.52.24.08.48.08.72.08z"/>
    </symbol>
    <symbol id="instagram" viewBox="0 0 32 32">
      <path d="M28.717 10.756a9.264 9.264 0 0 0-.596-3.145 6.547 6.547 0 0 0-3.743-3.737 9.42 9.42 0 0 0-3.108-.596c-1.368-.061-1.801-.078-5.273-.078s-3.917 0-5.274.078a9.418 9.418 0 0 0-3.106.596 6.541 6.541 0 0 0-3.743 3.737 9.288 9.288 0 0 0-.596 3.101c-.061 1.367-.08 1.8-.08 5.265s0 3.909.08 5.265a9.335 9.335 0 0 0 .596 3.104 6.548 6.548 0 0 0 3.744 3.735 9.37 9.37 0 0 0 3.106.639c1.369.061 1.803.08 5.274.08s3.916 0 5.274-.08a9.357 9.357 0 0 0 3.108-.595 6.555 6.555 0 0 0 3.743-3.737 9.35 9.35 0 0 0 .596-3.104c.061-1.365.08-1.798.08-5.265-.003-3.466-.003-3.906-.082-5.264zM15.99 22.531c-3.631 0-6.572-2.936-6.572-6.561s2.941-6.561 6.572-6.561c3.628 0 6.572 2.936 6.572 6.561s-2.944 6.561-6.572 6.561zm6.833-11.835a1.53 1.53 0 1 1 0-3.06 1.53 1.53 0 1 1 0 3.06z"/>
      <path d="M15.992 19.976a4.004 4.004 0 1 0 0-8.009 4.004 4.004 0 0 0 0 8.009z"/>
    </symbol>
    <symbol id="youtube" viewBox="0 0 32 32">
      <path d="M24.24 6c-1.36-.08-4.16-.16-8.4-.16h-.56c-4.08 0-6.8.08-8.16.24-1.84.16-3.12.64-3.84 1.28-.64.56-1.12 1.6-1.28 2.96-.08.88-.16 2.72-.16 5.52v.4c0 2.64.08 4.48.24 5.36.24 1.28.64 2.24 1.44 2.8.8.64 2.16 1.04 4.08 1.2 1.36.08 4.16.16 8.4.16h.56c4.08 0 6.8-.08 8.16-.24 1.84-.16 3.12-.64 3.84-1.28.64-.56 1.12-1.6 1.28-2.96.08-.88.16-2.72.16-5.52v-.4c0-2.64-.08-4.48-.24-5.36-.24-1.28-.64-2.24-1.44-2.8-.8-.64-2.16-1.04-4.08-1.2zm-3.12 9.84-8.8 5.28V10.56l8.8 5.28z"/>
    </symbol>
    <svg id="trash-bin" width="20" height="20" viewBox="0 0 20 20" fill="none" xmlns="http://www.w3.org/2000/svg"><path d="M7.950 0.971 C 7.290 1.067,6.669 1.464,6.318 2.016 C 6.031 2.467,5.962 2.753,5.936 3.600 L 5.917 4.250 4.083 4.267 C 2.074 4.285,2.162 4.276,1.960 4.489 C 1.701 4.761,1.701 5.239,1.960 5.511 C 2.138 5.699,2.203 5.715,2.833 5.733 L 3.417 5.750 3.435 10.983 C 3.456 16.754,3.444 16.428,3.666 17.036 C 3.951 17.818,4.683 18.552,5.456 18.832 C 6.075 19.056,5.958 19.050,10.000 19.050 C 14.042 19.050,13.925 19.056,14.544 18.832 C 15.317 18.552,16.049 17.818,16.334 17.036 C 16.556 16.428,16.544 16.754,16.565 10.983 L 16.583 5.750 17.167 5.733 C 17.797 5.715,17.862 5.699,18.040 5.511 C 18.367 5.167,18.270 4.571,17.850 4.339 C 17.761 4.290,17.543 4.281,15.917 4.267 L 14.083 4.250 14.064 3.600 C 14.038 2.753,13.969 2.467,13.682 2.016 C 13.323 1.452,12.711 1.066,12.017 0.968 C 11.730 0.927,8.232 0.930,7.950 0.971 M11.948 2.469 C 12.079 2.500,12.154 2.549,12.303 2.698 C 12.535 2.929,12.560 3.026,12.574 3.750 L 12.583 4.250 10.000 4.250 L 7.417 4.250 7.426 3.750 C 7.439 3.073,7.468 2.943,7.652 2.739 C 7.854 2.513,7.980 2.461,8.399 2.431 C 8.945 2.392,11.752 2.421,11.948 2.469 M15.083 10.800 C 15.082 15.470,15.077 15.874,15.023 16.164 C 14.951 16.551,14.820 16.808,14.564 17.064 C 14.308 17.320,14.051 17.451,13.664 17.524 C 13.377 17.578,13.062 17.583,10.000 17.583 C 6.938 17.583,6.623 17.578,6.336 17.524 C 5.950 17.451,5.692 17.320,5.437 17.065 C 5.228 16.856,5.082 16.613,5.012 16.355 C 4.986 16.261,4.951 15.883,4.933 15.517 C 4.898 14.765,4.888 5.790,4.922 5.755 C 4.935 5.743,7.226 5.737,10.014 5.742 L 15.083 5.750 15.083 10.800 M8.125 8.865 C 7.963 8.917,7.811 9.030,7.713 9.172 L 7.617 9.311 7.617 11.664 L 7.617 14.017 7.714 14.160 C 7.860 14.376,8.066 14.483,8.333 14.483 C 8.601 14.483,8.806 14.376,8.953 14.160 L 9.050 14.017 9.050 11.667 L 9.050 9.317 8.953 9.173 C 8.899 9.094,8.791 8.992,8.713 8.946 C 8.557 8.854,8.277 8.816,8.125 8.865 M11.459 8.865 C 11.296 8.917,11.145 9.030,11.046 9.172 L 10.950 9.311 10.950 11.664 L 10.950 14.017 11.047 14.160 C 11.194 14.376,11.399 14.483,11.667 14.483 C 11.934 14.483,12.140 14.376,12.286 14.160 L 12.383 14.017 12.383 11.667 L 12.383 9.317 12.286 9.173 C 12.232 9.094,12.124 8.992,12.046 8.946 C 11.890 8.854,11.610 8.816,11.459 8.865 " stroke="none" fill-rule="evenodd" fill="black"></path></svg>
  <!-- #endregion Header -->
  <!-- #region Hero -->
    <symbol id="sun" viewBox="0 0 32 32">
      <path d="m14.254 13.505.363.372L10.151 1.08l5.321 12.466.018-.52.441-13.027.441 13.026.018.52 5.321-12.466-4.466 12.797 9.465-9.702-8.787 10.32 12.331-5.628-11.922 6.449 13.531-.793-13.446 1.707 12.904 4.148-13.155-3.266 10.534 8.53-11.087-7.798 6.741 11.759-7.521-11.276 2.038 13.4-2.94-13.232-2.94 13.232 2.038-13.4-7.521 11.276 6.741-11.759-11.087 7.798 10.534-8.53L.541 20.377l12.904-4.148-13.446-1.707 13.531.793L1.608 8.866l12.331 5.628-8.787-10.32 9.102 9.33zm.931.566-.646.4-.458.607-.208.731.07.757.339.68.562.512.709.275h.76l.709-.275.562-.512.339-.68.07-.757-.208-.731-.458-.607-.646-.4-.747-.14-.747.14z"/>
    </symbol>
  <!-- #endregion Hero -->
  <!-- #region Exercises -->
    <symbol id="running-man" viewBox="0 0 29 32">
      <path d="M28.367 9.451a1.232 1.232 0 0 0-1.706-.149l-3.359 2.757-1.545-3.739a1.157 1.157 0 0 0-.234-.362 3.255 3.255 0 0 0-1.619-1.617 3.379 3.379 0 0 0-1.005-.262c-.075-.038-.142-.088-.227-.114l-5.911-1.61a1.242 1.242 0 0 0-.938.125 1.17 1.17 0 0 0-.736.672l-2.226 5.592a1.18 1.18 0 0 0 .692 1.534 1.224 1.224 0 0 0 1.568-.678l1.88-4.722 2.692.731c-.066.104-.137.201-.19.312l-3.451 7.309c-.05.107-.076.217-.112.328l-4.194 6.871-7.019 2.294a1.73 1.73 0 0 0-.376 2.45 1.82 1.82 0 0 0 2.506.369l7.182-2.417c.22-.156.38-.36.5-.581.09-.093.193-.168.262-.284l2.501-4.096 4.439 3.696-4.749 5.23a1.722 1.722 0 0 0 .152 2.469c.74.643 1.873.575 2.531-.149l5.927-6.524c.184-.201.294-.433.369-.676.044-.132.044-.268.055-.405 0-.069.027-.132.021-.196a1.705 1.705 0 0 0-.615-1.274l-4.084-3.403c.294-.274.544-.6.725-.983l2.646-5.599.848 2.206c.036.196.103.388.245.549.128.149.291.248.465.317.018.009.039.01.06.016.11.038.222.075.337.08.136.012.275-.005.415-.043l.005-.002c.037-.009.075-.002.112-.017.197-.073.348-.196.477-.34l4.82-3.998c.512-.421.296-1.166-.135-1.667zM22.271 6.602c1.866 0 3.378-1.478 3.378-3.301S24.137 0 22.271 0s-3.378 1.478-3.378 3.301 1.513 3.301 3.378 3.301z"/>
    </symbol>
    <symbol id="quotes" viewBox="0 0 32 32">
      <path d="M8.201 17.469c1.546-.613 2.785-.452 3.719.481s1.21 2.421.831 4.463c-.292 1.517-.933 2.683-1.925 3.5-.963.787-2.085 1.181-3.369 1.181-1.75 0-2.96-.671-3.631-2.013-.671-1.371-.802-3.208-.394-5.512.233-1.254.613-2.523 1.137-3.806s1.225-2.596 2.1-3.938 2.013-2.508 3.413-3.5 2.946-1.633 4.637-1.925l-.437 4.638c-1.429.292-2.698 1.035-3.806 2.231-1.108 1.167-1.867 2.567-2.275 4.2zm13.169 0c1.546-.613 2.785-.452 3.719.481s1.21 2.421.831 4.463c-.292 1.517-.933 2.683-1.925 3.5-.963.787-2.085 1.181-3.369 1.181-1.75 0-2.96-.671-3.631-2.013-.671-1.371-.802-3.208-.394-5.512.233-1.254.613-2.523 1.137-3.806s1.225-2.596 2.1-3.938 2.013-2.508 3.413-3.5 2.946-1.633 4.637-1.925l-.437 4.638c-1.429.292-2.698 1.035-3.806 2.231-1.108 1.167-1.867 2.567-2.275 4.2z"/>
    </symbol>
    <symbol id="dumbbell" viewBox="0 0 32 32">
      <path d="M7.36 9.143H5.44c-.532 0-.96.459-.96 1.029v4.457h-.96c-.176 0-.32.154-.32.343v2.057c0 .188.144.343.32.343h.96v4.457c0 .57.428 1.028.96 1.028h1.92c.532 0 .96-.459.96-1.028V10.172c0-.57-.428-1.029-.96-1.029zm21.12 5.486h-.96v-4.457c0-.57-.428-1.029-.96-1.029h-1.92c-.532 0-.96.459-.96 1.029v11.657c0 .57.428 1.028.96 1.028h1.92c.532 0 .96-.459.96-1.028v-4.457h.96c.176 0 .32-.154.32-.343v-2.057c0-.189-.144-.343-.32-.343zM21.44 6.4h-1.92c-.532 0-.96.459-.96 1.029v7.2h-5.12v-7.2c0-.57-.428-1.029-.96-1.029h-1.92c-.532 0-.96.459-.96 1.029v17.143c0 .57.428 1.029.96 1.029h1.92c.532 0 .96-.459.96-1.029v-7.2h5.12v7.2c0 .57.428 1.029.96 1.029h1.92c.532 0 .96-.459.96-1.029V7.429c0-.57-.428-1.029-.96-1.029z"/>
    </symbol>
    <svg id="search" width="18" height="18" viewBox="0 0 18 18" fill="none" xmlns="http://www.w3.org/2000/svg"><path d="M7.740 1.518 C 7.079 1.579,6.349 1.747,5.795 1.967 C 3.521 2.868,1.942 4.858,1.570 7.290 C 1.498 7.765,1.498 8.735,1.570 9.210 C 2.027 12.198,4.304 14.475,7.290 14.930 C 7.765 15.002,8.735 15.002,9.210 14.930 C 10.326 14.760,11.433 14.302,12.281 13.658 L 12.458 13.525 13.901 14.964 C 15.286 16.346,15.352 16.406,15.508 16.452 C 15.711 16.512,15.789 16.512,15.983 16.454 C 16.192 16.392,16.392 16.192,16.454 15.983 C 16.512 15.789,16.512 15.711,16.452 15.508 C 16.406 15.352,16.346 15.286,14.964 13.901 L 13.525 12.458 13.658 12.281 C 14.155 11.626,14.556 10.790,14.772 9.960 C 14.937 9.326,14.983 8.956,14.983 8.250 C 14.983 7.544,14.937 7.174,14.772 6.540 C 14.095 3.937,11.913 1.978,9.240 1.576 C 8.931 1.529,8.007 1.494,7.740 1.518 M9.105 3.071 C 9.676 3.176,10.134 3.326,10.613 3.567 C 11.960 4.242,12.968 5.501,13.333 6.960 C 13.459 7.464,13.484 7.674,13.484 8.250 C 13.484 8.826,13.459 9.036,13.333 9.540 C 12.870 11.393,11.393 12.870,9.540 13.333 C 9.036 13.459,8.826 13.484,8.250 13.484 C 7.328 13.484,6.626 13.314,5.820 12.897 C 5.333 12.644,4.965 12.371,4.547 11.953 C 3.736 11.143,3.266 10.220,3.056 9.030 C 3.004 8.734,3.004 7.766,3.056 7.470 C 3.208 6.608,3.518 5.847,3.984 5.192 C 4.242 4.828,4.828 4.242,5.192 3.984 C 5.710 3.615,6.348 3.320,6.960 3.166 C 7.208 3.104,7.365 3.076,7.785 3.017 C 7.970 2.992,8.874 3.028,9.105 3.071 " stroke="none" fill-rule="evenodd" fill="black"></path>
    </svg>
    <symbol id="exercise-start" viewBox="0 0 32 32">
      <path stroke="currentColor" stroke-linecap="round" stroke-width="3" d="m15 28 13-13m0 0L15 2m13 13H2"/>
    </symbol>
    <symbol id="star" viewBox="0 0 34 32">
      <path d="M14.89 2.282c.737-2.268 3.945-2.268 4.682 0l2.08 6.402a2.463 2.463 0 0 0 2.341 1.701h6.731c2.384 0 3.376 3.051 1.447 4.453l-5.446 3.957a2.46 2.46 0 0 0-.894 2.752l2.08 6.402c.737 2.268-1.859 4.154-3.788 2.752l-5.446-3.957a2.461 2.461 0 0 0-2.894 0l-5.446 3.957c-1.929 1.402-4.525-.484-3.788-2.752l2.08-6.402a2.46 2.46 0 0 0-.894-2.752l-5.446-3.957c-1.929-1.402-.938-4.453 1.447-4.453h6.731a2.462 2.462 0 0 0 2.341-1.701l2.08-6.402z"/>
    </symbol>
    <!-- Pagination -->
    <symbol id="pagination-left-double-arrow" viewBox="0 0 41 32">
      <path d="M13.111 16.789a1.099 1.099 0 0 1-.328-.789 1.118 1.118 0 0 1 .328-.788l5.1-5.089a1.099 1.099 0 0 0 .328-.789 1.114 1.114 0 0 0-1.111-1.112 1.11 1.11 0 0 0-.783.323l-5.1 5.1a3.334 3.334 0 0 0 0 4.711l5.1 5.1a1.11 1.11 0 0 0 1.895-.79 1.118 1.118 0 0 0-.328-.788l-5.1-5.089zM22.444 16.789a1.099 1.099 0 0 1-.328-.789 1.118 1.118 0 0 1 .328-.788l5.1-5.089a1.099 1.099 0 0 0 .328-.789 1.114 1.114 0 0 0-1.111-1.112 1.11 1.11 0 0 0-.783.323l-5.1 5.1a3.334 3.334 0 0 0 0 4.711l5.1 5.1a1.11 1.11 0 0 0 1.895-.79 1.118 1.118 0 0 0-.328-.788l-5.1-5.089z"/>
    </symbol>
    <symbol id="pagination-left-single-arrow" viewBox="0 0 32 32">
      <path d="M14.133 16.947a1.334 1.334 0 0 1 0-1.894l6.12-6.107a1.334 1.334 0 1 0-1.88-1.894l-6.12 6.12a4.001 4.001 0 0 0 0 5.654l6.12 6.12a1.337 1.337 0 0 0 2.172-.434 1.331 1.331 0 0 0-.292-1.46l-6.12-6.107z"/>
    </symbol>
    <symbol id="pagination-right-single-arrow" viewBox="0 0 32 32">
      <path d="M17.867 16.947a1.334 1.334 0 0 0 0-1.894l-6.12-6.107a1.334 1.334 0 1 1 1.88-1.894l6.12 6.12a4.001 4.001 0 0 1 0 5.654l-6.12 6.12a1.337 1.337 0 0 1-2.172-.434 1.331 1.331 0 0 1 .292-1.46l6.12-6.107z"/>
    </symbol>
    <symbol id="pagination-right-double-arrow" viewBox="0 0 41 32">
      <path d="M28.222 16.789A1.099 1.099 0 0 0 28.55 16a1.118 1.118 0 0 0-.328-.788l-5.1-5.089a1.099 1.099 0 0 1-.328-.789 1.114 1.114 0 0 1 1.111-1.112c.293 0 .575.116.783.323l5.1 5.1a3.334 3.334 0 0 1 0 4.711l-5.1 5.1a1.11 1.11 0 0 1-1.895-.79 1.118 1.118 0 0 1 .328-.788l5.1-5.089zM18.889 16.789a1.099 1.099 0 0 0 .328-.789 1.118 1.118 0 0 0-.328-.788l-5.1-5.089a1.099 1.099 0 0 1-.328-.789 1.114 1.114 0 0 1 1.111-1.112c.293 0 .575.116.783.323l5.1 5.1a3.334 3.334 0 0 1 0 4.711l-5.1 5.1a1.11 1.11 0 0 1-1.895-.79 1.118 1.118 0 0 1 .328-.788l5.1-5.089z"/>
    </symbol>
    <!-- Modal -->
    <svg id="heart" width="20" height="20" viewBox="0 0 20 20" fill="none" xmlns="http://www.w3.org/2000/svg"><path d="M4.954 1.837 C 2.887 2.196,1.207 3.769,0.704 5.817 C 0.598 6.249,0.559 6.587,0.559 7.083 C 0.559 8.276,0.896 9.291,1.628 10.300 C 1.829 10.578,9.433 18.218,9.633 18.343 C 9.727 18.402,9.800 18.417,10.000 18.417 C 10.200 18.417,10.273 18.402,10.367 18.343 C 10.572 18.214,18.171 10.577,18.382 10.287 C 18.934 9.530,19.266 8.726,19.401 7.817 C 19.452 7.474,19.452 6.693,19.401 6.350 C 19.098 4.312,17.735 2.678,15.802 2.031 C 14.689 1.659,13.356 1.678,12.298 2.080 C 11.532 2.371,11.034 2.687,10.358 3.310 L 10.000 3.641 9.642 3.310 C 9.217 2.919,8.983 2.738,8.600 2.509 C 7.999 2.149,7.368 1.924,6.650 1.814 C 6.220 1.748,5.401 1.759,4.954 1.837 M6.183 3.267 C 6.843 3.326,7.485 3.552,8.044 3.924 C 8.182 4.015,8.567 4.360,8.953 4.738 C 9.654 5.425,9.714 5.466,10.000 5.466 C 10.285 5.466,10.345 5.425,11.049 4.737 C 11.428 4.366,11.825 4.011,11.958 3.922 C 13.338 3.005,15.101 3.036,16.400 4.000 C 16.694 4.219,17.120 4.665,17.311 4.956 C 18.182 6.280,18.172 7.931,17.284 9.246 C 17.139 9.462,16.379 10.239,13.551 13.067 L 10.000 16.617 6.449 13.067 C 2.662 9.280,2.691 9.311,2.402 8.696 C 1.732 7.266,2.015 5.576,3.115 4.439 C 3.778 3.753,4.584 3.358,5.500 3.270 C 5.656 3.255,5.791 3.241,5.800 3.238 C 5.809 3.236,5.982 3.249,6.183 3.267 " stroke="none" fill-rule="evenodd" fill="black"></path>
    </svg>
    <symbol id="close" viewBox="0 0 32 32">
      <path stroke="currentColor" stroke-linecap="round" stroke-width="2.286" d="M22.667 9.333 9.334 22.666M9.333 9.333l13.333 13.333"/>
    </symbol>

  <!-- #endregion Exercises -->
    <symbol id="scroll-up" viewBox="0 0 31 32">
      <path d="M16.413 7.652v17.019h-1.811V7.652l-8.509 8.509-1.28-1.28L15.508 4.186l10.695 10.695-1.28 1.28-8.509-8.509z"/>
    </symbol>
  </defs>
</svg>
